<?xml version="1.0" standalone="no"?>
<!DOCTYPE svg PUBLIC "-//W3C//DTD SVG 20010904//EN"
 "http://www.w3.org/TR/2001/REC-SVG-20010904/DTD/svg10.dtd">
<svg version="1.0" xmlns="http://www.w3.org/2000/svg"
 width="300.000000pt" height="300.000000pt" viewBox="0 0 300.000000 300.000000"
 preserveAspectRatio="xMidYMid meet">
<metadata>
Created by potrace 1.10, written by Peter Selinger 2001-2011
</metadata>
<g transform="translate(0.000000,300.000000) scale(0.100000,-0.100000)"
fill="#000000" stroke="none">
<path d="M789 2980 c-49 -26 -99 -85 -100 -118 -3 -105 2 -96 -59 -103 -55 -6
-115 -30 -103 -42 3 -4 1 -7 -5 -7 -6 0 -26 -9 -44 -20 l-33 -20 31 6 c21 4
34 1 43 -10 14 -16 6 -56 -10 -56 -6 0 -7 -5 -3 -11 7 -12 -36 -2 -46 10 -11
13 -59 5 -79 -13 -21 -19 -31 -73 -11 -61 6 3 10 1 10 -4 0 -6 7 -11 15 -11
17 0 18 -6 5 -35 -8 -19 -9 -19 -9 2 -1 29 -17 38 -24 13 -3 -13 5 -30 23 -50
23 -25 26 -32 14 -37 -8 -3 -16 -4 -17 -2 -27 48 -38 81 -34 93 4 9 2 26 -3
38 -9 23 -9 22 -15 -27 -4 -35 -16 -65 -27 -65 -6 0 -8 9 -5 20 3 11 1 20 -4
20 -17 0 -9 -36 16 -70 25 -34 33 -34 15 0 -5 10 -7 26 -4 35 5 13 10 9 19
-17 7 -18 16 -42 20 -52 7 -16 5 -18 -8 -13 -9 3 -16 3 -15 -1 4 -12 -106
-110 -119 -105 -6 2 -14 -1 -18 -6 -3 -6 1 -11 9 -11 22 0 20 -13 -9 -56 -30
-44 -31 -58 -5 -94 21 -30 96 -70 131 -70 17 0 20 -5 17 -25 -3 -14 -2 -25 2
-25 11 0 31 -76 32 -124 0 -32 6 -47 21 -57 34 -23 77 -72 77 -89 0 -8 14 -28
30 -43 34 -33 36 -40 15 -57 -34 -28 -11 -55 62 -74 34 -8 47 -16 44 -26 -2
-8 -3 -25 -3 -37 1 -17 -5 -24 -26 -29 -83 -19 -110 -29 -156 -58 -62 -40
-115 -93 -122 -123 -3 -12 -1 -37 5 -56 6 -19 9 -41 6 -49 -3 -8 1 -35 9 -59
9 -24 16 -51 16 -60 0 -9 18 -44 40 -77 24 -35 40 -71 40 -89 0 -16 7 -38 15
-49 14 -18 14 -17 5 9 -5 16 -10 42 -10 58 0 19 -13 47 -35 76 -19 25 -35 54
-35 65 0 15 12 8 61 -32 34 -28 64 -49 67 -46 3 4 3 7 1 9 -70 56 -137 113
-146 125 -14 17 -18 82 -5 82 4 0 13 -5 20 -12 7 -7 12 -8 12 -2 0 6 -11 20
-25 32 -74 64 34 183 214 236 78 23 81 22 74 -21 -4 -24 -3 -34 4 -30 15 10
23 60 11 74 -11 14 -1 113 12 113 24 0 41 -17 65 -63 54 -103 136 -165 232
-174 130 -12 214 48 254 177 16 52 19 80 13 108 -4 20 -8 42 -8 47 -1 6 -7 13
-15 16 -8 3 21 6 65 7 l79 2 1 -39 c2 -68 76 -166 158 -208 41 -21 129 -21
192 0 85 29 126 87 146 209 12 70 20 88 44 88 12 0 37 -77 53 -165 17 -90 25
-385 11 -434 -6 -25 -13 -54 -14 -65 -5 -44 -145 -239 -225 -314 -56 -53 -88
-67 -193 -85 -75 -13 -124 -14 -188 -4 -33 6 -100 38 -100 49 0 5 -5 6 -12 2
-8 -5 -9 -2 -5 9 3 9 3 16 -1 15 -4 -1 -15 2 -25 7 -14 6 -15 10 -6 21 9 11 8
14 -2 14 -11 0 -11 2 1 10 13 9 13 11 0 20 -12 7 -12 12 -2 22 6 6 12 17 12
22 0 6 -5 4 -10 -4 -9 -13 -11 -13 -20 0 -5 8 -7 24 -5 35 3 11 2 14 -1 7 -5
-11 -80 101 -122 181 -17 34 -114 115 -235 199 -74 50 -92 68 -109 107 -11 25
-22 41 -24 35 -3 -6 4 -29 14 -52 15 -34 36 -54 108 -101 134 -89 211 -165
277 -273 78 -129 97 -220 56 -272 -11 -14 -28 -26 -37 -26 -14 0 -72 -64 -170
-189 l-19 -24 -22 36 c-57 93 -218 200 -341 229 -28 6 -50 14 -50 17 0 17 101
144 133 169 35 26 46 42 29 42 -17 0 -99 -87 -140 -150 -24 -36 -52 -69 -62
-75 -10 -5 -55 -45 -100 -89 -80 -76 -82 -78 -96 -57 -8 12 -20 21 -26 21 -6
0 -33 14 -60 31 -43 28 -53 30 -94 24 -75 -11 -74 -10 -74 -84 l0 -66 50 -24
c76 -36 77 -41 20 -98 l-51 -50 38 -18 c161 -76 279 -141 266 -147 -4 -3 -2
-3 6 -1 8 2 17 0 20 -5 3 -4 28 -23 54 -41 42 -29 46 -35 35 -49 -7 -10 -17
-20 -21 -23 -5 -3 7 -6 25 -6 18 0 25 2 16 4 -19 5 -23 15 -11 26 3 4 17 0 31
-9 13 -8 27 -12 30 -8 4 4 1 9 -6 11 -27 10 -92 72 -81 78 6 4 17 -2 25 -13
18 -26 74 -67 74 -54 0 6 -17 20 -37 32 -36 21 -37 23 -18 36 24 18 27 17 51
-2 18 -15 17 -15 -15 -10 -29 5 -32 4 -21 -9 7 -9 19 -14 27 -11 8 3 12 2 10
-2 -3 -4 1 -12 8 -19 10 -9 12 -5 10 19 -1 21 -13 38 -36 56 -19 15 -39 33
-46 42 -11 13 -12 13 -13 -2 0 -10 9 -22 21 -28 11 -7 18 -14 15 -18 -8 -8
-67 49 -60 59 2 4 -5 10 -16 14 -22 7 -26 20 -9 31 6 3 15 0 20 -7 4 -7 11
-10 15 -6 4 4 -1 13 -11 21 -17 12 -21 12 -30 -1 -10 -14 -15 -14 -41 3 -16
10 -32 22 -35 27 -4 5 -9 4 -13 -1 -3 -6 2 -13 11 -16 30 -10 75 -53 61 -59
-7 -2 -9 -8 -5 -13 4 -5 12 -2 17 6 5 8 12 11 16 7 4 -3 2 -13 -5 -21 -6 -8
-10 -20 -9 -27 4 -20 -9 -15 -82 27 -73 42 -204 108 -236 118 -19 6 -17 11 30
61 28 30 68 66 89 79 20 14 87 74 147 133 61 59 119 112 131 119 37 19 174
-32 276 -103 65 -45 173 -168 173 -196 0 -20 -36 -41 -57 -33 -9 4 -22 1 -29
-5 -17 -14 -18 -5 -3 23 9 16 8 19 -3 16 -7 -3 -14 -17 -16 -32 -3 -24 -7 -27
-27 -22 -17 4 -27 0 -39 -19 -15 -22 -22 -24 -68 -20 -35 3 -48 1 -38 -5 13
-9 13 -10 0 -10 -12 -1 -11 -3 3 -11 9 -5 17 -15 17 -20 0 -6 6 -17 14 -24 11
-12 17 -10 36 12 16 19 28 24 48 20 29 -6 73 17 50 26 -10 3 -8 10 7 26 17 18
25 19 54 11 29 -8 38 -6 63 15 16 14 34 25 39 25 5 0 19 -16 31 -34 29 -44 57
-53 80 -25 23 27 22 36 -2 82 -32 60 -24 72 18 28 38 -40 38 -40 82 -29 25 6
51 16 59 22 10 8 20 3 40 -20 14 -17 48 -57 75 -88 27 -31 47 -58 45 -61 -8
-7 -114 -9 -139 -2 l-25 8 26 -15 c33 -19 42 -41 23 -57 -12 -10 -13 -9 -8 5
3 9 1 16 -5 16 -5 0 -19 9 -30 21 -17 18 -19 19 -17 4 1 -10 10 -23 18 -29 12
-9 15 -23 11 -56 -2 -25 -4 -61 -3 -80 0 -19 -2 -31 -6 -27 -8 7 -33 -22 -34
-38 0 -5 5 -3 10 5 9 13 11 13 19 0 7 -9 6 -17 0 -21 -14 -8 27 -19 66 -18 29
1 29 1 5 8 -18 5 -25 14 -25 31 0 14 -4 28 -10 32 -7 5 -7 8 0 8 6 0 11 15 12
33 2 25 0 29 -8 17 -8 -11 -9 -9 -3 10 4 14 11 28 17 31 5 4 7 13 5 20 -3 8 2
20 9 28 8 7 12 19 9 26 -3 10 3 10 30 2 28 -9 37 -8 44 3 5 8 12 11 16 7 4 -4
13 -2 20 4 9 8 17 8 26 0 7 -6 51 -41 98 -77 47 -37 100 -80 117 -97 18 -17
35 -28 39 -24 3 3 -11 21 -32 39 -21 18 -48 42 -60 53 -12 11 -43 35 -68 53
-28 19 -44 37 -40 44 4 6 3 9 -2 5 -5 -3 -18 1 -29 9 -10 8 -15 14 -9 14 5 0
-4 7 -21 16 -16 8 -41 24 -55 35 -21 17 -22 19 -3 10 14 -7 24 -8 28 -1 3 5 0
10 -7 10 -7 1 -26 12 -43 25 -28 23 -28 24 -5 18 13 -4 36 -12 49 -19 14 -7
29 -10 35 -7 5 4 -5 11 -22 17 -26 9 -30 14 -20 24 9 9 9 12 0 12 -7 0 -12 -4
-12 -10 0 -5 -5 -10 -10 -10 -7 0 -7 7 0 21 7 11 9 23 7 26 -3 2 -8 -4 -11
-15 -4 -11 -18 -22 -32 -25 -13 -2 -22 -2 -19 1 2 3 -4 11 -15 19 -11 8 -17
20 -14 28 4 8 2 15 -4 15 -6 0 -13 -6 -15 -12 -4 -10 -6 -10 -6 0 -1 7 6 15
14 18 22 9 18 23 -10 34 -26 10 -75 -5 -75 -22 0 -5 5 -6 10 -3 15 9 30 -4 24
-20 -5 -12 -9 -12 -29 3 -12 9 -20 23 -18 29 3 7 0 13 -6 13 -6 0 -11 -4 -11
-10 0 -5 -5 -10 -12 -10 -9 0 -9 3 0 12 8 8 6 17 -8 36 -11 13 -17 28 -14 33
3 5 -2 9 -10 9 -8 0 -18 9 -21 20 -3 11 -11 20 -16 20 -13 0 -11 -14 4 -29 10
-12 9 -13 -7 -7 -16 5 -17 4 -6 -8 6 -9 15 -15 18 -14 20 2 25 -4 12 -13 -13
-9 -12 -10 3 -5 15 5 17 2 12 -17 -5 -17 -4 -19 4 -7 10 14 12 13 15 -20 0 -8
12 -20 26 -27 27 -14 27 -14 -9 -18 -25 -3 -65 33 -77 70 -4 11 -16 32 -27 46
l-19 27 28 36 c16 20 34 36 39 36 6 0 30 -19 55 -41 82 -73 209 -150 305 -184
75 -27 246 -36 316 -18 113 30 208 138 259 294 40 120 48 192 27 253 -9 25
-12 48 -8 50 16 10 83 -19 119 -52 20 -18 29 -31 19 -28 -11 4 -16 2 -12 -5 4
-6 -1 -19 -11 -30 -18 -20 -18 -21 8 -8 15 6 25 15 23 20 -3 4 -1 10 4 14 6 3
8 12 4 21 -4 12 -1 13 19 5 13 -5 98 -10 188 -11 90 0 167 -3 172 -6 5 -3 31
-7 60 -10 28 -3 77 -14 109 -24 35 -12 85 -20 125 -20 80 0 82 7 4 11 -30 1
-73 9 -95 16 -77 27 -263 53 -363 50 -134 -3 -228 10 -251 34 -27 29 -114 59
-172 59 -40 0 -49 3 -41 12 19 24 34 156 27 240 -3 46 -8 139 -10 208 -4 123
-12 207 -21 222 -5 7 15 48 27 58 11 9 52 130 46 136 -10 10 14 64 28 64 19 0
27 15 29 58 1 20 8 48 15 61 8 14 10 36 6 55 -17 82 0 142 51 181 19 14 34 31
34 37 0 6 -12 1 -26 -13 l-27 -24 6 38 c5 33 2 40 -23 59 l-29 21 25 32 c23
31 34 93 14 80 -5 -3 -10 -16 -10 -29 0 -12 -7 -31 -16 -42 -13 -15 -15 -16
-10 -2 3 12 1 15 -10 11 -9 -3 -14 1 -14 15 0 25 -45 55 -70 47 -12 -4 -20 -2
-20 4 0 6 -7 11 -15 11 -8 0 -15 5 -15 10 0 6 18 10 39 10 22 0 43 5 46 11 10
16 -4 24 -17 11 -20 -20 -65 -14 -82 9 -10 15 -27 22 -55 24 -23 1 -50 10 -62
21 -14 13 -18 14 -14 3 4 -10 -1 -15 -15 -15 -23 0 -23 1 -9 27 5 11 14 17 19
14 5 -3 11 -1 14 4 6 8 113 -8 149 -24 10 -4 17 -3 17 4 0 14 -74 33 -132 35
-27 0 -48 3 -48 6 0 3 3 16 7 29 6 23 7 23 14 5 7 -17 8 -16 8 5 1 14 -9 45
-20 69 -16 33 -32 49 -63 63 -45 20 -60 17 -30 -6 10 -9 1 -7 -21 5 -22 11
-47 17 -57 14 -19 -6 -58 28 -58 51 0 8 -5 15 -11 15 -6 0 -8 -9 -4 -22 6 -18
4 -20 -11 -13 -36 16 -78 11 -82 -9 -3 -11 0 -16 7 -12 13 9 14 0 2 -42 -8
-25 -7 -32 2 -29 7 2 13 15 15 28 3 21 8 24 43 24 22 0 36 -1 30 -3 -6 -2 -8
-8 -5 -13 3 -6 -2 -19 -11 -29 -12 -13 -13 -20 -5 -25 9 -5 9 -10 1 -14 -6 -4
-3 -11 9 -19 17 -10 20 -10 20 3 0 8 5 15 10 15 17 0 11 -46 -9 -64 -10 -9
-25 -14 -35 -10 -20 8 -20 13 2 38 16 20 16 20 -2 6 -17 -13 -21 -12 -42 15
-13 17 -24 24 -24 18 0 -7 9 -22 20 -33 24 -24 24 -24 4 -44 -21 -22 -37 -11
-23 16 9 17 8 19 -9 14 -21 -7 -60 22 -45 33 4 3 15 15 23 25 14 18 13 18 -10
13 -14 -4 -19 -4 -12 -1 6 3 12 12 12 19 0 16 -64 55 -91 55 -25 0 -61 -18
-72 -36 -4 -8 -15 -14 -23 -14 -8 0 -13 -4 -10 -9 7 -10 -19 -23 -28 -14 -9 9
-76 9 -76 1 0 -5 12 -8 28 -8 38 0 72 -11 72 -22 0 -6 -7 -8 -15 -4 -24 9 -45
-4 -45 -29 0 -32 -24 -49 -60 -42 -16 4 -32 2 -35 -3 -3 -6 1 -7 10 -4 11 5
14 2 9 -9 -5 -15 -19 -18 -66 -16 -13 1 -37 2 -55 3 -23 1 -29 4 -22 13 8 8 4
10 -13 5 -21 -5 -22 -4 -8 13 13 17 13 18 0 13 -20 -7 -56 17 -40 27 15 9 70
-4 70 -18 0 -7 7 -4 14 5 15 20 49 25 84 14 20 -7 24 -3 21 21 -2 14 33 25 41
13 4 -7 10 -8 13 -3 3 4 -1 17 -9 28 -8 10 -14 14 -14 8 0 -7 -9 -15 -21 -18
-11 -4 -18 -12 -16 -19 3 -8 -3 -12 -16 -10 -12 1 -26 3 -30 3 -5 1 -6 5 -3
10 4 5 -3 7 -15 4 -16 -5 -18 -8 -7 -15 10 -8 9 -9 -4 -4 -10 3 -20 1 -23 -4
-4 -6 -11 -10 -16 -10 -5 0 -1 10 11 22 26 28 10 50 -18 25 -22 -20 -32 -22
-32 -4 0 7 9 18 20 25 12 7 18 17 15 22 -3 6 1 10 9 10 9 0 16 -7 16 -15 0 -9
6 -12 15 -9 11 5 14 1 9 -12 -4 -12 5 -7 25 14 17 18 31 36 31 41 0 17 -51 71
-66 71 -9 0 -12 -4 -9 -10 3 -5 -1 -10 -9 -10 -9 0 -16 3 -16 8 0 4 -35 8 -77
9 -59 1 -87 -3 -114 -17z m141 0 c0 -5 -4 -10 -10 -10 -5 0 -10 5 -10 10 0 6
5 10 10 10 6 0 10 -4 10 -10z m-80 -10 c0 -5 -4 -10 -10 -10 -5 0 -21 -20 -35
-43 -14 -24 -36 -49 -50 -55 -33 -15 -32 -31 5 -77 17 -21 30 -41 30 -46 0
-13 -18 -20 -25 -9 -3 5 -12 10 -18 10 -7 0 -3 -7 8 -16 11 -8 25 -12 33 -9 7
3 26 -2 42 -10 26 -14 28 -13 23 5 -3 11 -14 20 -24 20 -11 0 -19 5 -19 11 0
6 6 9 13 6 53 -22 53 -22 34 0 -12 14 -15 23 -8 28 6 3 11 16 11 28 0 21 1 21
17 -3 40 -61 76 -90 112 -90 20 0 42 -4 49 -9 14 -8 73 8 121 34 14 8 60 50
101 94 41 45 83 81 93 81 30 0 57 -19 57 -41 l0 -20 -26 20 c-24 19 -29 19
-54 6 -34 -18 -42 -35 -25 -59 13 -17 14 -17 25 3 6 12 7 21 1 21 -5 0 -12 -6
-14 -12 -3 -8 -6 -6 -6 5 -1 19 35 38 57 30 14 -6 16 -33 2 -33 -5 0 -10 5
-10 10 0 20 -16 10 -17 -11 -1 -12 1 -18 4 -15 4 3 17 -1 31 -10 13 -8 30 -13
38 -10 8 3 12 2 9 -3 -3 -5 4 -12 15 -16 11 -3 20 -11 20 -16 0 -12 -17 -12
-23 1 -3 6 -4 5 -3 -2 1 -7 12 -14 24 -14 12 -1 28 -7 37 -14 10 -8 27 -10 51
-5 31 5 36 4 31 -9 -4 -9 -3 -16 0 -16 13 0 61 52 59 64 -2 6 -1 8 1 3 8 -13
23 3 23 24 0 35 20 20 26 -21 4 -22 8 -40 10 -40 2 0 13 9 24 20 34 34 24 64
-44 139 l-31 34 32 -21 c22 -16 32 -19 35 -10 3 8 10 3 18 -12 12 -23 12 -24
-3 -11 -10 8 -17 9 -17 3 0 -6 8 -17 18 -24 23 -17 45 -89 32 -102 -7 -7 -10
-6 -10 2 0 6 -7 9 -15 6 -11 -5 -12 -9 -2 -19 10 -11 15 -10 30 3 14 13 16 25
11 61 -3 25 -13 56 -20 69 -19 29 0 29 20 0 18 -26 21 -17 5 14 -8 14 -8 18 0
14 6 -4 15 -24 21 -46 9 -32 7 -50 -10 -99 -11 -33 -20 -72 -20 -85 0 -18 -4
-24 -15 -20 -8 4 -15 1 -15 -5 0 -6 5 -11 11 -11 5 0 8 -4 5 -9 -4 -5 0 -12 6
-14 9 -4 10 -8 2 -14 -6 -4 -13 -19 -17 -31 -5 -23 -5 -23 13 -7 13 12 19 13
22 4 3 -9 9 -9 24 -1 19 11 19 11 0 12 -11 0 -16 3 -13 6 3 4 1 16 -4 27 -14
25 6 38 62 42 35 3 37 2 27 -15 -21 -33 30 -68 58 -40 7 7 9 2 6 -18 -3 -21 1
-31 13 -36 21 -8 67 3 59 15 -3 5 2 9 10 9 9 0 16 -4 16 -10 0 -5 8 -7 18 -4
14 5 14 4 2 -4 -12 -9 -12 -13 3 -30 13 -14 15 -25 9 -43 -7 -18 -3 -35 16
-72 24 -47 24 -48 7 -87 -14 -31 -16 -53 -11 -105 4 -42 3 -73 -5 -86 -6 -12
-12 -34 -13 -49 -1 -15 -14 -42 -29 -59 -15 -18 -27 -45 -27 -59 0 -15 -6 -43
-14 -62 -7 -19 -19 -50 -25 -67 -15 -39 -24 -41 -46 -10 -15 21 -59 150 -69
199 -2 13 -7 31 -11 41 -5 12 -1 22 10 31 13 9 16 19 10 32 -4 10 -8 22 -7 26
1 4 -8 13 -20 19 -19 10 -25 8 -45 -17 l-24 -29 -27 33 c-40 48 -39 74 3 106
20 16 32 21 29 12 -4 -9 5 -20 25 -30 35 -19 45 -20 36 -5 -4 5 -19 15 -33 21
-15 6 -22 12 -15 15 6 2 24 -3 40 -12 l28 -17 -24 21 c-13 12 -29 21 -37 21
-7 0 -18 9 -24 20 -20 38 -99 43 -100 6 -1 -6 -9 -21 -19 -33 l-19 -22 -71 69
c-66 65 -74 70 -114 70 -24 0 -48 -5 -54 -11 -6 -6 -36 -12 -67 -13 -39 -2
-54 0 -46 8 16 16 12 21 -14 21 -19 0 -22 -3 -14 -13 18 -21 -2 -27 -33 -10
-16 10 -35 15 -42 13 -6 -2 -30 -6 -52 -8 -35 -3 -51 -13 -110 -72 -52 -51
-71 -64 -73 -52 -5 25 -21 21 -34 -8 -6 -14 -15 -25 -20 -25 -13 0 -10 9 13
41 11 16 16 29 10 29 -5 0 -19 -13 -31 -29 l-21 -30 31 -31 c37 -38 39 -54 5
-38 -14 6 -25 15 -25 21 0 5 -12 6 -27 2 -40 -10 -140 -16 -128 -7 6 4 11 13
13 21 2 9 -3 11 -15 6 -28 -12 -55 -8 -72 11 -15 16 -14 16 4 9 37 -14 65 -17
65 -7 0 11 -33 22 -67 22 -25 0 -30 -19 -11 -38 9 -9 9 -12 -1 -12 -7 0 -11
-9 -9 -22 3 -23 64 -61 81 -51 4 2 7 -1 7 -6 0 -6 -6 -11 -14 -11 -8 0 -24
-12 -35 -26 -12 -15 -28 -24 -38 -22 -18 4 -53 -30 -53 -52 0 -6 12 -23 26
-37 29 -29 32 -49 38 -259 2 -67 7 -127 11 -133 10 -17 5 -19 -32 -14 -24 4
-33 10 -33 25 0 22 -35 94 -50 103 -6 3 -19 24 -30 46 -11 21 -36 53 -55 70
-30 28 -35 39 -35 76 0 31 3 42 12 37 8 -5 9 -2 5 10 -6 14 -3 17 10 12 10 -4
14 -3 9 1 -4 4 -17 8 -28 8 -16 0 -25 12 -38 54 -10 29 -24 58 -32 63 -7 5
-18 12 -25 16 -39 24 -84 169 -48 156 14 -6 16 -2 19 34 2 19 107 112 127 112
10 0 20 4 23 9 8 12 55 20 61 10 3 -4 -3 -10 -12 -12 -16 -4 -16 -5 -1 -6 23
-1 52 57 37 75 -6 8 -15 11 -20 8 -15 -9 -10 33 5 45 16 14 28 51 16 51 -13 0
-60 -60 -60 -76 0 -8 -6 -14 -12 -15 -10 0 -10 -2 0 -6 6 -2 12 -11 12 -19 0
-17 22 -18 38 -2 6 6 14 9 18 6 3 -4 -4 -12 -16 -18 -30 -16 -111 14 -103 39
8 21 44 61 56 61 20 0 77 69 99 120 22 50 23 51 64 49 37 -2 41 -5 40 -27 -1
-14 -10 -30 -21 -36 -11 -6 -24 -15 -28 -21 -6 -6 -10 -6 -14 2 -9 24 -44 -5
-37 -31 3 -14 -1 -27 -10 -35 -17 -14 -22 -61 -7 -61 5 0 14 14 20 31 6 18 16
29 23 27 21 -7 16 -31 -11 -55 -25 -21 -25 -22 -5 -23 24 0 49 25 56 57 4 15
-2 27 -23 42 -16 12 -29 26 -29 32 0 6 16 -3 36 -20 20 -19 40 -28 47 -24 7 4
21 9 32 10 36 6 43 11 61 49 11 24 30 42 53 52 36 16 36 16 9 20 -15 2 -35 -1
-45 -6 -13 -7 -24 -6 -38 5 -19 15 -18 15 15 9 l35 -6 -32 19 c-28 18 -31 25
-35 77 -5 84 27 144 97 182 25 14 35 15 35 2z m46 -27 c-3 -4 -1 -11 4 -18 7
-8 3 -19 -11 -33 -22 -24 -45 -29 -52 -9 -2 7 -8 8 -13 3 -5 -5 -4 -11 4 -13
6 -3 9 -10 5 -16 -4 -6 0 -8 10 -4 10 3 17 2 17 -4 0 -6 -10 -9 -22 -7 -39 5
-35 50 8 98 32 35 39 39 47 25 5 -9 6 -19 3 -22z m89 7 c-4 -7 2 -7 18 -1 26
10 41 5 31 -10 -3 -5 -19 -9 -35 -9 -43 0 -82 -42 -77 -81 3 -22 1 -29 -11
-29 -36 1 -42 15 -19 46 12 16 26 31 30 32 5 2 8 8 8 14 0 12 39 48 52 48 5 0
6 -4 3 -10z m660 -52 c15 -7 35 -29 46 -50 l20 -39 -21 13 c-16 10 -24 10 -40
0 -15 -9 -20 -9 -20 0 0 6 -7 19 -16 29 -10 11 -13 25 -9 38 7 25 7 24 40 9z
m-675 -2 c0 -3 -4 -8 -10 -11 -5 -3 -10 -1 -10 4 0 6 5 11 10 11 6 0 10 -2 10
-4z m-190 -72 c0 -31 -2 -35 -15 -24 -25 21 -19 49 13 59 1 1 2 -15 2 -35z
m45 10 c13 -5 14 -8 3 -15 -19 -13 -28 -11 -28 6 0 17 2 18 25 9z m595 -14 c0
-5 -7 -10 -15 -10 -8 0 -15 5 -15 10 0 6 7 10 15 10 8 0 15 -4 15 -10z m-580
-29 c0 -16 -28 -20 -34 -5 -4 9 1 14 14 14 11 0 20 -4 20 -9z m-146 -57 c9
-23 3 -26 -28 -14 -53 20 -83 13 -106 -25 -21 -35 -40 -39 -40 -8 0 9 6 13 15
9 8 -3 15 0 15 7 0 38 131 66 144 31z m846 6 c0 -5 -5 -10 -11 -10 -5 0 -7 5
-4 10 3 6 8 10 11 10 2 0 4 -4 4 -10z m-808 -71 c31 -19 31 -20 8 -17 -24 3
-50 20 -50 32 0 10 8 7 42 -15z m1078 1 c0 -5 -4 -10 -10 -10 -5 0 -10 5 -10
10 0 6 5 10 10 10 6 0 10 -4 10 -10z m35 -10 c3 -5 2 -10 -4 -10 -5 0 -13 5
-16 10 -3 6 -2 10 4 10 5 0 13 -4 16 -10z m-1104 -27 c12 -15 12 -16 -5 -10
-12 5 -22 3 -27 -5 -6 -10 -11 -10 -20 -1 -10 10 -7 14 12 22 13 5 25 10 25
10 1 1 8 -7 15 -16z m-52 -30 c8 -14 12 -15 25 -4 13 11 16 11 16 -2 0 -10 -8
-14 -23 -13 -29 3 -47 14 -47 27 0 15 18 10 29 -8z m1236 7 c-3 -5 -13 -10
-21 -10 -8 0 -14 5 -14 10 0 6 9 10 21 10 11 0 17 -4 14 -10z m-1275 -10 c8
-5 11 -12 8 -16 -10 -9 -38 3 -38 16 0 12 10 13 30 0z m-230 -24 c-19 -13 -37
-22 -39 -21 -7 7 12 27 33 35 39 16 41 10 6 -14z m1570 -27 c0 -6 -7 -6 -20 1
-11 6 -20 15 -20 21 0 6 7 6 20 -1 11 -6 20 -15 20 -21z m-1520 17 c0 -2 -7
-7 -16 -10 -8 -3 -12 -2 -9 4 6 10 25 14 25 6z m1656 -128 c12 -19 15 -66 4
-73 -9 -5 -14 16 -13 52 0 7 -4 11 -9 10 -6 -1 -13 4 -15 11 -6 16 23 16 33 0z
m-1694 -40 c-6 -6 -15 -8 -19 -4 -4 4 -1 11 7 16 19 12 27 3 12 -12z m1009
-58 c6 0 8 4 4 9 -3 6 5 9 17 8 29 -2 78 -45 72 -62 -3 -7 -1 -16 5 -20 7 -4
8 0 4 11 -4 11 -2 15 6 13 7 -3 13 -9 13 -14 0 -6 11 -19 24 -30 13 -11 36
-51 51 -90 26 -66 31 -71 71 -84 23 -7 50 -10 60 -6 14 6 11 9 -13 15 -69 16
-105 53 -85 90 6 11 8 25 4 32 -4 6 -1 9 7 6 8 -3 13 -13 11 -22 -5 -26 39
-84 70 -95 29 -10 71 -4 63 9 -3 5 0 12 6 16 8 5 9 3 4 -6 -6 -10 -4 -12 8 -7
10 3 17 2 17 -3 0 -4 -16 -14 -36 -20 -26 -9 -33 -15 -23 -21 8 -4 14 -12 15
-16 0 -4 3 -15 7 -23 3 -8 11 -35 17 -60 6 -25 20 -71 31 -103 24 -73 24 -80
-5 -93 -19 -9 -25 -8 -35 8 -15 25 -71 48 -113 48 -24 0 -29 3 -20 12 11 11
34 8 132 -18 l25 -7 -25 27 c-33 37 -73 57 -121 61 -36 4 -38 3 -24 -11 21
-22 20 -23 -25 -19 -22 2 -40 0 -40 -4 0 -4 -19 -14 -42 -20 -50 -15 -150 -62
-144 -68 2 -3 18 3 35 11 16 9 38 16 48 16 10 -1 -5 -11 -32 -23 -28 -12 -65
-32 -82 -44 -19 -14 -46 -23 -68 -23 -20 0 -56 -5 -81 -11 -52 -13 -108 -1
-154 33 -24 17 -39 19 -138 15 -70 -3 -117 -9 -127 -17 -13 -11 -14 -10 -9 4
3 9 10 16 15 16 5 0 9 5 9 12 0 9 -3 9 -12 0 -7 -7 -20 -12 -29 -12 -9 0 -22
-7 -29 -15 -14 -16 0 -21 16 -5 6 6 10 3 10 -10 0 -19 -13 -25 -43 -21 -7 1
-13 -4 -13 -11 0 -13 -59 -68 -72 -68 -5 0 -8 15 -9 33 0 38 -4 83 -13 154 -6
46 -4 52 14 58 11 3 20 11 20 16 0 5 5 9 11 9 5 0 7 -4 4 -10 -3 -5 -1 -10 5
-10 6 0 10 6 9 13 -1 6 2 23 8 37 15 38 25 140 13 140 -11 0 -12 -7 -14 -83
-1 -43 -6 -52 -36 -77 l-35 -29 -6 52 c-8 78 -1 95 52 134 27 19 49 39 49 45
0 13 58 0 88 -20 19 -12 28 -13 43 -4 24 15 32 15 23 1 -4 -8 1 -9 16 -4 14 5
20 3 16 -3 -9 -15 -76 -12 -115 4 -38 16 -70 19 -55 5 12 -11 96 -31 133 -31
18 0 40 9 51 20 11 11 25 20 30 20 6 0 13 6 16 14 4 11 12 7 32 -15 29 -32 97
-55 105 -35 3 7 -9 11 -31 12 -28 0 -42 8 -64 34 -26 32 -38 80 -20 80 5 0 13
10 18 23 6 12 9 17 8 10 -2 -6 14 -17 34 -24 46 -14 72 -36 72 -61 0 -20 2
-19 45 20 8 7 15 10 15 6 0 -4 8 3 19 14 10 12 21 19 25 15 3 -3 6 1 6 11 0
22 30 80 37 72 4 -3 12 3 20 14 9 12 20 17 31 13 16 -6 16 -6 0 11 -10 9 -18
23 -18 29 0 8 3 8 8 2 4 -5 19 -11 35 -12 21 -1 27 3 27 18 0 19 1 19 16 5 8
-9 20 -16 25 -16z m-232 11 c21 -14 -4 -41 -38 -41 -20 0 -23 -2 -11 -10 10
-6 22 -4 38 6 18 12 27 13 35 5 8 -8 7 -11 -5 -11 -9 0 -18 -12 -21 -30 -4
-20 -13 -30 -24 -30 -15 0 -16 -2 -3 -10 13 -8 13 -10 -2 -10 -9 0 -23 -3 -32
-6 -9 -3 -16 -1 -16 6 0 6 5 8 10 5 15 -9 12 4 -5 21 -13 13 -15 13 -15 1 0
-19 -50 -33 -60 -17 -9 14 -5 78 5 103 9 22 29 23 21 1 -5 -14 -4 -15 8 -5 30
25 92 37 115 22z m60 -40 c-6 -16 -19 -37 -30 -47 -18 -16 -19 -16 -19 7 0 18
3 20 9 10 7 -11 12 -4 22 27 6 23 16 39 20 36 4 -2 3 -17 -2 -33z m36 18 c-5
-15 -4 -19 4 -15 6 4 11 3 11 -2 0 -6 -7 -12 -15 -16 -11 -4 -15 2 -15 24 0
17 5 30 11 30 6 0 8 -9 4 -21z m395 -19 c0 -5 -2 -10 -4 -10 -3 0 -8 5 -11 10
-3 6 -1 10 4 10 6 0 11 -4 11 -10z m35 -10 c4 -6 11 -8 16 -5 5 4 9 1 9 -4 0
-6 -2 -11 -4 -11 -2 0 -13 -3 -23 -6 -15 -5 -15 -4 -3 5 11 8 11 11 2 11 -7 0
-17 -10 -21 -22 -8 -21 -10 -21 -16 -5 -12 28 25 62 40 37z m-685 -24 c0 -8
-4 -18 -10 -21 -5 -3 -10 3 -10 14 0 12 5 21 10 21 6 0 10 -6 10 -14z m-760
-16 c0 -5 -4 -10 -10 -10 -5 0 -10 5 -10 10 0 6 5 10 10 10 6 0 10 -4 10 -10z
m721 -7 c-17 -33 -59 -65 -78 -60 -15 3 -14 6 9 15 15 6 34 23 44 37 18 28 40
35 25 8z m665 -25 c-9 -5 -16 -16 -16 -25 0 -12 -3 -14 -11 -6 -8 8 -6 20 6
44 16 29 18 31 27 14 8 -13 7 -20 -6 -27z m-1438 -48 c0 -17 10 -42 21 -56 25
-31 26 -44 7 -44 -18 0 -56 52 -56 75 0 15 17 55 24 55 2 0 3 -14 4 -30z m937
20 c3 -5 1 -10 -4 -10 -6 0 -11 5 -11 10 0 6 2 10 4 10 3 0 8 -4 11 -10z
m-470 -36 c5 -7 19 -15 30 -18 11 -3 -1 -4 -27 -2 -53 4 -88 24 -66 37 16 10
49 1 63 -17z m152 -8 c-4 -10 4 -17 24 -21 16 -4 29 -10 29 -15 0 -17 -53 -20
-100 -4 -41 13 -48 19 -39 30 15 18 23 18 16 -1 -5 -11 2 -10 26 5 39 23 51
24 44 6z m109 -13 c-6 -15 -9 -15 -16 -3 -6 9 -5 17 3 22 16 10 21 2 13 -19z
m877 0 c-7 -2 -19 -2 -25 0 -7 3 -2 5 12 5 14 0 19 -2 13 -5z m-853 -18 c0 -8
-4 -15 -10 -15 -5 0 -10 7 -10 15 0 8 5 15 10 15 6 0 10 -7 10 -15z m-670 -70
c16 -9 19 -14 9 -15 -8 0 -24 7 -35 15 -24 18 -7 19 26 0z m290 -25 c0 -5 -5
-10 -11 -10 -5 0 -7 5 -4 10 3 6 8 10 11 10 2 0 4 -4 4 -10z m30 -5 c0 -2 -5
-15 -12 -29 -9 -20 -14 -23 -25 -15 -18 15 -17 33 2 25 9 -3 15 0 15 9 0 8 5
15 10 15 6 0 10 -2 10 -5z m1156 -170 c24 -18 20 -18 -36 -1 -41 13 -42 15
-14 15 16 1 39 -6 50 -14z m-226 -41 c0 -2 -7 -4 -15 -4 -8 0 -15 4 -15 10 0
5 7 7 15 4 8 -4 15 -8 15 -10z m37 10 c-3 -3 -12 -4 -19 -1 -8 3 -5 6 6 6 11
1 17 -2 13 -5z m172 -27 c65 -31 86 -159 41 -252 -27 -55 -58 -81 -123 -100
-124 -37 -221 3 -276 114 -64 127 -19 202 140 231 35 7 73 16 84 21 24 10 100
2 134 -14z m139 -24 c-2 -11 -14 -19 -30 -21 -15 -2 -28 -10 -30 -20 -3 -16
-4 -16 -10 0 -5 12 1 20 23 30 16 7 29 16 29 20 0 5 5 8 11 8 6 0 9 -8 7 -17z
m-884 -34 c4 -3 -15 -9 -40 -13 -26 -3 -50 -4 -52 -1 -3 3 4 5 16 5 12 0 22 4
22 8 0 9 45 10 54 1z m-99 -16 c10 -14 27 -17 96 -15 100 3 145 -15 171 -68
46 -90 -9 -249 -98 -286 -43 -18 -155 -18 -198 0 -114 47 -193 209 -140 285
20 27 88 60 126 61 15 0 30 5 34 11 5 9 -4 10 -31 5 -55 -11 -122 -44 -148
-75 -12 -14 -35 -28 -52 -29 -66 -8 154 118 224 127 2 1 9 -7 16 -16z m162 11
c-3 -3 -12 -4 -19 -1 -8 3 -5 6 6 6 11 1 17 -2 13 -5z m-420 -151 c-3 -3 -13
1 -21 10 -8 8 -12 17 -9 20 3 3 12 -1 20 -9 9 -8 13 -18 10 -21z m-119 8 c3
-8 -1 -12 -9 -9 -7 2 -15 10 -17 17 -3 8 1 12 9 9 7 -2 15 -10 17 -17z m152
-1 c0 -5 -4 -10 -10 -10 -5 0 -10 5 -10 10 0 6 5 10 10 10 6 0 10 -4 10 -10z
m1337 -627 c12 -18 14 -39 10 -86 -8 -76 -26 -142 -36 -131 -12 14 -41 113
-41 140 0 12 -4 26 -10 29 -5 3 -10 0 -10 -7 1 -32 29 -130 45 -154 11 -16 15
-37 12 -54 -9 -44 -73 -143 -120 -187 -78 -72 -96 -78 -237 -77 -113 0 -133 3
-205 30 -87 32 -229 121 -284 178 -29 30 -32 38 -21 51 18 21 34 19 109 -16
79 -38 154 -46 261 -30 112 17 164 38 218 86 54 49 163 188 193 246 l19 38 41
-17 c23 -9 48 -26 56 -39z m-1887 -332 c3 -5 20 -16 38 -25 17 -9 32 -20 32
-25 0 -4 -22 -26 -48 -48 l-48 -41 -49 28 c-46 26 -50 31 -53 69 -3 35 0 42
20 50 26 10 100 4 108 -8z m110 -59 c0 -11 -48 -55 -85 -78 -23 -13 -18 -5 20
32 50 51 65 61 65 46z m751 -90 c-5 -2 2 -15 15 -29 13 -14 22 -28 22 -32 -1
-3 3 -16 10 -29 7 -12 10 -27 7 -32 -9 -14 -44 -8 -38 7 3 7 1 13 -5 13 -11 0
-25 38 -22 59 1 13 -1 13 -14 2 -9 -8 -19 -11 -23 -7 -3 3 -1 6 5 6 7 0 12 7
12 15 0 13 -3 13 -20 3 -15 -9 -22 -10 -31 -1 -8 8 -3 22 22 55 49 62 53 63
61 15 5 -23 4 -43 -1 -45z m239 13 c0 -8 -2 -15 -4 -15 -2 0 -6 7 -10 15 -3 8
-1 15 4 15 6 0 10 -7 10 -15z m-335 -95 c-10 -11 -20 -18 -23 -15 -7 6 18 35
31 35 5 0 2 -9 -8 -20z m-60 -10 c3 -5 1 -10 -4 -10 -6 0 -11 5 -11 10 0 6 2
10 4 10 3 0 8 -4 11 -10z m-84 -53 c-14 -14 -41 -18 -41 -5 0 6 7 8 15 4 9 -3
15 0 15 10 0 8 5 12 11 8 8 -4 8 -9 0 -17z m-63 -10 c8 -10 6 -13 -11 -14 -12
0 -16 1 -9 4 6 3 10 9 6 14 -8 14 2 11 14 -4z m-278 -131 c14 -16 19 -26 13
-22 -7 4 -21 2 -31 -3 -26 -14 -36 -2 -14 15 10 8 12 13 5 14 -7 0 -10 7 -6
15 3 9 6 15 7 13 0 -2 12 -16 26 -32z"/>
<path d="M1249 2753 c-13 -16 -12 -17 4 -4 9 7 17 15 17 17 0 8 -8 3 -21 -13z"/>
<path d="M1636 2729 c-12 -15 -14 -24 -7 -30 6 -5 9 -6 6 -3 -6 9 14 34 26 34
5 0 9 -7 9 -16 0 -9 -5 -12 -12 -8 -7 5 -8 3 -3 -6 9 -14 -11 -30 -40 -30 -15
0 -17 2 -6 9 10 6 10 10 1 16 -6 4 -17 2 -22 -3 -19 -19 11 -44 46 -40 l31 3
0 -77 c1 -84 0 -83 32 -92 17 -5 29 0 49 19 27 27 47 27 24 0 -7 -9 -8 -15 -2
-15 14 0 54 51 47 59 -4 3 -10 -1 -16 -9 -7 -12 -11 -12 -17 -2 -6 9 -13 7
-30 -8 -22 -21 -55 -31 -59 -17 -2 4 -3 27 -3 51 0 31 5 46 16 50 20 8 33 -2
18 -12 -6 -4 -10 -19 -10 -34 1 -14 -2 -24 -6 -22 -4 3 -8 -4 -8 -16 0 -19 2
-20 15 -6 8 8 15 26 15 39 0 14 5 27 10 29 8 2 7 14 -2 34 -13 30 -43 38 -31
8 3 -8 0 -14 -6 -14 -15 0 -14 23 2 39 10 11 9 13 -5 8 -20 -7 -29 11 -16 36
6 12 4 22 -6 32 -19 19 -18 19 -40 -6z"/>
<path d="M1696 2704 c-4 -10 -1 -14 6 -12 15 5 23 28 10 28 -5 0 -13 -7 -16
-16z"/>
<path d="M1198 2662 c-18 -30 -10 -59 13 -50 11 4 14 -6 14 -38 1 -23 -3 -40
-7 -38 -14 9 -46 -6 -52 -23 -7 -17 9 -33 32 -33 7 0 17 11 23 24 10 20 17 24
44 19 20 -3 35 -1 40 7 10 16 -43 70 -61 63 -12 -4 -12 0 -4 21 10 27 5 32
-20 17 -22 -15 -31 -2 -12 17 11 12 20 14 24 8 4 -6 9 -8 13 -5 3 3 -3 13 -13
22 -17 15 -19 15 -34 -11z m58 -87 c-3 -10 3 -17 19 -21 14 -3 25 -10 25 -15
0 -16 -17 -12 -69 18 -5 3 19 33 26 33 3 0 3 -7 -1 -15z m-51 -65 c-10 -11
-20 -18 -23 -15 -7 6 18 35 31 35 5 0 2 -9 -8 -20z"/>
<path d="M895 2470 c-9 -14 23 -69 58 -102 53 -48 52 -31 -3 32 -28 33 -49 64
-45 70 3 5 4 10 1 10 -3 0 -8 -4 -11 -10z"/>
<path d="M920 2460 c0 -11 26 -31 32 -25 3 3 11 -3 19 -12 13 -16 12 -17 -3
-4 -29 22 -20 -3 11 -33 l29 -28 -12 35 c-6 19 -17 41 -24 50 -14 17 -52 29
-52 17z"/>
<path d="M1124 2444 c-17 -25 -17 -27 1 -40 16 -12 21 -12 35 1 22 20 20 59
-2 63 -10 2 -24 -8 -34 -24z m46 12 c0 -3 -4 -8 -10 -11 -5 -3 -10 -1 -10 4 0
6 5 11 10 11 6 0 10 -2 10 -4z m-12 -29 c15 6 15 5 3 -10 -15 -19 -31 -14 -30
11 0 10 3 12 5 5 3 -7 13 -9 22 -6z"/>
<path d="M1601 2446 c-15 -18 -1 -50 29 -66 35 -19 46 40 12 67 -22 16 -27 16
-41 -1z m39 -25 c16 -30 12 -36 -10 -16 -21 19 -26 35 -10 35 5 0 14 -9 20
-19z"/>
<path d="M1929 2443 c-11 -15 -11 -16 1 -5 21 18 34 15 19 -5 -13 -16 -12 -17
3 -4 10 7 15 17 12 22 -8 14 -20 11 -35 -8z"/>
<path d="M820 2413 c0 -12 5 -25 10 -28 13 -8 13 15 0 35 -8 12 -10 11 -10 -7z"/>
<path d="M1766 2385 c-15 -12 -17 -17 -7 -29 17 -20 42 -13 77 20 l29 28 -36
-22 c-20 -12 -45 -22 -55 -21 -13 0 -9 5 14 15 17 8 32 16 32 19 0 10 -36 4
-54 -10z"/>
<path d="M2042 2375 c2 -12 11 -20 23 -20 23 0 27 26 5 32 -13 4 -13 3 0 -6 8
-5 11 -14 6 -18 -4 -4 -14 1 -23 12 -15 20 -15 20 -11 0z"/>
<path d="M2006 2353 c-6 -14 -5 -15 5 -6 7 7 10 15 7 18 -3 3 -9 -2 -12 -12z"/>
<path d="M476 2275 c-10 -26 -6 -32 6 -10 11 19 11 19 20 0 7 -19 8 -19 5 -1
-3 25 -23 32 -31 11z"/>
<path d="M517 2209 c-15 -18 -25 -34 -22 -37 3 -3 11 3 18 13 13 16 14 16 20
1 4 -9 2 -16 -3 -16 -6 0 -10 -9 -10 -19 0 -11 -6 -22 -12 -24 -10 -4 -10 -6
0 -6 7 -1 17 10 22 23 5 13 18 30 29 38 12 8 18 18 14 21 -3 4 -1 7 5 7 6 0 9
7 6 15 -10 24 -37 17 -67 -16z m53 12 c0 -5 -7 -14 -15 -21 -12 -10 -15 -10
-15 2 0 8 3 18 7 21 9 10 23 9 23 -2z"/>
<path d="M1901 2226 c-7 -8 -8 -22 -3 -36 6 -16 11 -20 16 -11 4 6 2 18 -4 26
-9 11 -9 15 -1 15 6 0 16 -10 21 -22 9 -23 9 -23 9 -2 1 30 -23 49 -38 30z"/>
<path d="M327 2211 c-4 -17 -3 -21 5 -13 5 5 8 16 6 23 -3 8 -7 3 -11 -10z"/>
<path d="M375 2208 c8 -20 -10 -25 -18 -5 -4 9 -6 9 -6 0 -1 -18 19 -27 32
-14 8 8 8 14 -2 24 -10 10 -11 9 -6 -5z"/>
<path d="M565 2120 c-3 -5 -3 -14 0 -20 8 -13 35 -13 35 0 0 5 -7 7 -15 4 -8
-4 -15 -2 -15 4 0 6 6 13 13 15 9 4 9 6 0 6 -6 1 -15 -3 -18 -9z"/>
<path d="M570 1793 c0 -6 5 -15 10 -18 6 -3 10 -14 10 -23 0 -13 -7 -9 -26 13
l-25 30 18 -33 c18 -32 36 -37 41 -11 1 8 -4 23 -12 34 -9 11 -16 15 -16 8z"/>
<path d="M857 2913 c-4 -3 -7 -10 -7 -14 0 -9 39 1 46 12 6 10 -29 12 -39 2z"/>
<path d="M1372 2310 c12 -18 38 -35 38 -25 0 9 -34 45 -42 45 -5 0 -3 -9 4
-20z"/>
<path d="M1454 2297 c15 -22 12 -67 -5 -67 -5 0 -8 -6 -6 -12 1 -7 -8 -14 -20
-16 -16 -2 -26 5 -37 27 -18 35 -19 41 -7 41 5 0 14 -13 21 -30 12 -29 30 -41
30 -20 0 9 -56 70 -64 70 -2 0 -2 -10 -1 -22 1 -13 3 -31 4 -40 0 -10 12 -25
25 -33 31 -21 60 -7 75 35 5 17 17 38 26 46 9 9 13 19 10 22 -3 4 -9 1 -13 -6
-6 -8 -12 -6 -22 8 -20 28 -34 25 -16 -3z"/>
<path d="M1420 2289 c0 -5 5 -7 10 -4 6 3 10 8 10 11 0 2 -4 4 -10 4 -5 0 -10
-5 -10 -11z"/>
<path d="M1325 2279 c-11 -17 1 -21 15 -4 8 9 8 15 2 15 -6 0 -14 -5 -17 -11z"/>
<path d="M1530 2241 c5 -11 15 -23 20 -26 14 -9 12 19 -2 33 -19 19 -30 14
-18 -7z"/>
<path d="M1284 2196 c-10 -8 -16 -17 -13 -20 3 -3 14 1 25 8 10 8 16 17 13 20
-3 3 -14 -1 -25 -8z"/>
<path d="M1040 2180 c0 -5 11 -10 24 -10 13 0 33 -3 43 -6 14 -4 15 -4 3 4
-25 15 -70 23 -70 12z"/>
<path d="M1235 2159 c-4 -12 -12 -18 -21 -15 -8 3 -14 -1 -14 -9 0 -22 13 -18
39 9 13 14 18 26 12 30 -5 4 -13 -3 -16 -15z"/>
<path d="M1020 2161 c0 -5 7 -12 16 -15 14 -5 15 -4 4 9 -14 17 -20 19 -20 6z"/>
<path d="M1680 2153 c0 -6 8 -17 18 -24 16 -13 16 -13 2 6 -8 11 -16 22 -17
24 -2 2 -3 0 -3 -6z"/>
<path d="M1068 2133 c7 -3 16 -2 19 1 4 3 -2 6 -13 5 -11 0 -14 -3 -6 -6z"/>
<path d="M1119 2323 c-1 -5 -1 -12 0 -17 1 -4 -4 -14 -10 -22 -9 -11 -8 -14 5
-14 11 0 16 9 16 30 0 26 -8 43 -11 23z"/>
<path d="M1070 2250 c0 -5 5 -10 11 -10 5 0 7 5 4 10 -3 6 -8 10 -11 10 -2 0
-4 -4 -4 -10z"/>
<path d="M655 2170 c3 -5 11 -10 16 -10 6 0 7 5 4 10 -3 6 -11 10 -16 10 -6 0
-7 -4 -4 -10z"/>
<path d="M844 2118 c10 -6 22 -6 26 -2 5 5 -3 10 -18 11 -22 1 -24 0 -8 -9z"/>
<path d="M1738 1773 c7 -3 16 -2 19 1 4 3 -2 6 -13 5 -11 0 -14 -3 -6 -6z"/>
<path d="M1565 1749 c-17 -4 -44 -23 -60 -40 l-30 -31 49 31 c44 27 59 31 122
31 40 0 75 4 78 9 7 11 -120 12 -159 0z"/>
<path d="M1738 1723 c6 -2 18 -2 25 0 6 3 1 5 -13 5 -14 0 -19 -2 -12 -5z"/>
<path d="M1564 1694 c-22 -8 -55 -29 -72 -47 l-31 -32 74 0 c75 0 75 13 0 14
l-39 1 20 20 c26 26 59 33 75 14 17 -20 35 -17 53 8 13 19 16 20 16 5 0 -10
-11 -23 -25 -29 -21 -9 -28 -8 -45 7 -12 11 -20 13 -20 6 0 -6 11 -17 25 -23
34 -15 72 3 77 35 3 23 4 24 43 12 l40 -12 -69 -32 c-38 -17 -66 -34 -63 -37
3 -3 19 2 36 10 16 9 36 16 42 16 7 0 21 7 31 17 23 21 33 11 16 -16 -20 -33
-59 -43 -149 -38 -50 3 -74 2 -59 -3 14 -4 58 -8 99 -9 71 -1 74 0 110 36 25
26 32 38 22 41 -8 3 -1 10 19 18 18 8 30 17 27 20 -3 3 -14 1 -24 -5 -14 -7
-31 -6 -59 4 -50 18 -118 17 -170 -1z m56 -14 c0 -5 -4 -10 -9 -10 -6 0 -13 5
-16 10 -3 6 1 10 9 10 9 0 16 -4 16 -10z"/>
<path d="M1456 1645 c-11 -8 -15 -15 -9 -15 6 0 16 7 23 15 16 19 11 19 -14 0z"/>
<path d="M934 1646 c-23 -7 -62 -27 -88 -45 -47 -33 -66 -54 -21 -25 14 9 25
13 25 8 0 -4 10 2 23 13 29 28 130 57 170 49 18 -3 56 -17 85 -31 65 -30 62
-18 -5 15 -57 28 -132 35 -189 16z"/>
<path d="M1020 1612 c-72 -5 -99 -13 -135 -42 -36 -29 -62 -40 -51 -21 3 4 -6
6 -20 3 -30 -5 -26 -11 11 -18 21 -4 40 3 71 26 29 20 58 32 91 35 32 3 43 1
33 -5 -8 -5 -23 -7 -32 -4 -10 3 -18 1 -18 -4 0 -14 27 -23 47 -15 11 4 14 3
9 -5 -11 -18 -54 -14 -65 5 -5 10 -13 15 -17 11 -4 -4 -1 -15 7 -24 9 -12 24
-15 51 -11 21 3 38 1 38 -3 0 -5 12 -2 28 6 15 7 36 14 47 14 23 0 52 16 44
25 -12 11 -105 30 -139 27z m103 -24 c27 1 11 -15 -20 -20 -16 -3 -35 -8 -44
-12 -14 -6 -17 -2 -15 19 1 23 4 25 31 19 17 -4 38 -7 48 -6z"/>
<path d="M896 1532 c-3 -5 14 -9 37 -10 32 -1 37 1 22 8 -26 11 -52 12 -59 2z"/>
<path d="M990 1520 c-13 -8 -12 -10 5 -11 11 -1 -5 -7 -35 -15 -41 -10 -58
-10 -70 -1 -10 7 -10 5 2 -8 16 -18 19 -18 83 0 36 9 68 22 71 27 4 6 -2 7
-16 3 -15 -5 -20 -4 -16 4 9 14 -4 14 -24 1z"/>
<path d="M1153 2988 c-20 -26 -41 -78 -32 -78 6 0 8 -3 6 -7 -3 -5 19 -8 48
-9 53 -1 53 0 74 41 23 47 25 55 12 55 -5 0 -15 -16 -21 -35 -12 -36 -25 -42
-82 -43 -25 0 -26 2 -15 27 6 14 17 34 25 44 9 9 10 17 5 17 -6 0 -15 -6 -20
-12z"/>
<path d="M1348 2982 c-10 -2 -18 -8 -18 -13 0 -6 7 -6 18 -1 9 5 23 7 30 5 6
-3 12 -3 12 0 0 8 -24 14 -42 9z"/>
<path d="M1535 2890 c-3 -6 1 -7 9 -4 18 7 21 14 7 14 -6 0 -13 -4 -16 -10z"/>
<path d="M1066 2875 c4 -8 10 -15 15 -15 4 0 6 7 3 15 -4 8 -10 15 -15 15 -4
0 -6 -7 -3 -15z"/>
<path d="M1462 2837 c-7 -8 -7 -18 -1 -27 8 -13 10 -13 19 0 6 10 6 16 0 18
-6 2 -8 8 -4 13 8 14 -2 11 -14 -4z"/>
<path d="M1130 2790 c8 -5 22 -9 30 -9 10 0 8 3 -5 9 -27 12 -43 12 -25 0z"/>
<path d="M1848 2703 c6 -2 18 -2 25 0 6 3 1 5 -13 5 -14 0 -19 -2 -12 -5z"/>
<path d="M490 2643 c0 -13 5 -23 10 -23 13 0 13 11 0 30 -8 12 -10 11 -10 -7z"/>
<path d="M2886 1625 c4 -8 8 -15 10 -15 2 0 4 7 4 15 0 8 -4 15 -10 15 -5 0
-7 -7 -4 -15z"/>
<path d="M2811 1595 c8 -7 78 -9 85 -2 4 4 -14 7 -41 7 -27 0 -46 -2 -44 -5z"/>
<path d="M1529 1396 c39 -14 61 -40 61 -73 0 -24 -4 -27 -51 -37 -14 -3 -45
-21 -70 -41 -49 -39 -71 -42 -153 -21 -31 8 -72 12 -92 9 -31 -5 -40 -2 -55
18 -10 13 -19 20 -19 14 0 -32 43 -54 92 -47 24 3 63 -2 99 -13 58 -18 61 -18
97 0 20 10 40 18 45 17 4 -1 6 3 5 10 -3 13 34 35 74 43 57 11 59 82 4 116
-17 10 -40 19 -51 18 -13 0 -9 -4 14 -13z"/>
<path d="M568 1388 c12 -6 22 -14 22 -18 0 -9 100 -53 106 -47 6 6 -123 77
-139 76 -7 0 -2 -5 11 -11z"/>
<path d="M1474 1374 c3 -9 6 -20 6 -25 0 -5 4 -9 9 -9 4 0 6 11 3 25 -2 14 -9
25 -14 25 -6 0 -7 -7 -4 -16z"/>
<path d="M515 1370 c11 -5 31 -9 45 -9 20 -1 22 1 10 9 -8 5 -28 9 -45 9 -26
0 -27 -2 -10 -9z"/>
<path d="M460 1242 c0 -5 7 -15 15 -22 8 -7 15 -8 15 -2 0 5 -7 15 -15 22 -8
7 -15 8 -15 2z"/>
<path d="M1521 1226 c-22 -12 -22 -13 -5 -21 18 -7 18 -8 2 -14 -17 -6 -16 -7
2 -18 17 -11 18 -10 13 5 -6 15 -5 15 10 3 10 -8 17 -9 17 -3 0 6 -10 18 -22
26 -21 15 -14 22 15 17 4 0 7 4 7 9 0 13 -10 12 -39 -4z"/>
<path d="M1025 1209 c-11 -17 1 -21 15 -4 8 9 8 15 2 15 -6 0 -14 -5 -17 -11z"/>
<path d="M1685 1202 c6 -6 24 -14 40 -18 21 -4 27 -3 20 4 -5 6 -23 14 -40 18
-21 4 -27 3 -20 -4z"/>
<path d="M506 1185 c4 -9 15 -20 26 -26 19 -10 19 -10 3 15 -19 28 -38 35 -29
11z"/>
<path d="M1403 1171 c-23 -19 -21 -31 6 -31 13 0 13 2 2 9 -21 13 5 24 29 11
16 -8 20 -8 20 4 0 7 -7 17 -16 20 -19 7 -15 9 -41 -13z"/>
<path d="M1340 1168 c0 -4 -12 -9 -27 -11 l-28 -4 28 -2 c15 0 27 -5 27 -11 0
-17 20 -11 27 8 4 9 11 20 16 24 6 3 -2 5 -16 5 -15 -1 -27 -5 -27 -9z"/>
<path d="M1475 1170 c3 -5 8 -10 11 -10 2 0 4 5 4 10 0 6 -5 10 -11 10 -5 0
-7 -4 -4 -10z"/>
<path d="M1680 1170 c8 -5 20 -10 25 -10 6 0 3 5 -5 10 -8 5 -19 10 -25 10 -5
0 -3 -5 5 -10z"/>
<path d="M1240 1141 c0 -4 14 -8 30 -8 17 0 28 2 25 5 -8 8 -55 11 -55 3z"/>
<path d="M1675 1136 c-16 -8 -83 -28 -147 -46 -110 -30 -125 -32 -250 -28
-107 2 -138 6 -158 21 l-24 17 31 0 c19 0 33 6 37 16 3 8 2 12 -4 9 -5 -3 -26
-8 -46 -11 -29 -3 -35 -1 -30 11 4 11 -1 15 -17 15 -15 0 -18 -3 -9 -8 8 -5
10 -16 6 -27 -6 -15 -4 -17 10 -12 15 6 18 3 14 -15 -5 -26 -21 -24 202 -27
139 -2 150 -1 265 32 131 38 175 54 175 62 0 8 -23 5 -55 -9z"/>
<path d="M1465 1115 c-22 -8 -65 -15 -95 -16 -30 0 -66 -5 -80 -9 -15 -4 9 -6
60 -4 79 3 241 41 180 43 -14 0 -43 -6 -65 -14z"/>
<path d="M485 1100 c3 -5 14 -10 23 -10 15 0 15 2 2 10 -20 13 -33 13 -25 0z"/>
<path d="M440 1086 c0 -16 60 -80 67 -72 5 5 -54 86 -63 86 -2 0 -4 -6 -4 -14z"/>
<path d="M560 1061 c0 -6 4 -13 10 -16 6 -3 7 1 4 9 -7 18 -14 21 -14 7z"/>
<path d="M1218 1010 c45 -38 158 -51 177 -20 4 6 -5 6 -21 0 -15 -6 -36 -7
-48 -3 -11 4 -29 6 -39 4 -10 -1 -35 7 -55 19 -35 19 -36 20 -14 0z"/>
<path d="M1592 997 c-13 -13 -28 -24 -35 -24 -13 0 -124 -21 -167 -31 -29 -6
-41 -6 -90 2 -26 5 -21 1 19 -14 52 -19 55 -19 74 -2 19 16 20 16 14 0 -7 -21
3 -24 21 -6 9 9 12 8 12 -6 0 -9 4 -15 10 -11 5 3 7 12 4 19 -3 8 4 16 18 20
37 9 43 7 22 -9 -16 -12 -17 -14 -2 -15 9 0 19 6 21 13 4 9 8 8 16 -3 7 -9 11
-11 11 -3 0 7 -8 17 -17 23 -15 9 -14 10 9 6 21 -5 35 1 60 23 18 16 30 32 27
35 -3 3 -15 -5 -27 -17z"/>
<path d="M1455 1000 c-3 -6 1 -7 9 -4 18 7 21 14 7 14 -6 0 -13 -4 -16 -10z"/>
<path d="M2110 981 c0 -6 4 -13 10 -16 6 -3 7 1 4 9 -7 18 -14 21 -14 7z"/>
<path d="M942 968 c-10 -13 -82 -219 -82 -234 1 -13 49 102 75 179 23 70 24
75 7 55z"/>
<path d="M2126 935 c-9 -26 -7 -32 5 -12 6 10 9 21 6 23 -2 3 -7 -2 -11 -11z"/>
<path d="M2150 920 c-8 -5 -12 -12 -9 -15 4 -3 12 1 19 10 14 17 11 19 -10 5z"/>
<path d="M2239 914 c15 -11 21 -23 18 -36 -3 -11 -3 -17 0 -14 4 3 12 -4 19
-17 26 -45 54 -106 54 -117 0 -5 4 -18 9 -28 5 -9 27 -69 48 -132 21 -63 46
-122 56 -132 9 -10 17 -26 17 -36 0 -11 8 -18 21 -19 12 -1 18 1 15 4 -3 4 3
17 15 29 l21 22 -22 12 c-12 6 -24 9 -27 7 -2 -3 5 -8 16 -12 23 -7 20 -19 -8
-34 -13 -7 -18 -6 -18 3 0 6 -11 37 -25 67 -32 67 -37 91 -19 97 9 3 11 -1 7
-16 -9 -27 10 -38 30 -18 8 9 12 16 7 16 -5 0 -15 -6 -21 -12 -10 -10 -12 -7
-10 12 3 21 -1 25 -20 23 -13 -2 -21 1 -17 7 3 6 1 10 -5 10 -7 0 -10 7 -6 15
3 8 1 15 -5 15 -6 0 -9 7 -6 15 4 8 1 17 -5 21 -7 4 -6 9 3 15 10 6 11 9 2 9
-15 0 -18 36 -4 44 13 8 42 -4 35 -15 -3 -5 2 -9 10 -9 9 0 16 7 16 15 0 20
-43 29 -69 16 -17 -10 -20 -9 -15 4 4 8 1 15 -6 15 -7 0 -10 7 -6 15 3 8 1 15
-3 15 -11 0 -61 87 -61 105 0 6 -11 17 -25 23 -36 17 -43 15 -16 -4z"/>
<path d="M1465 900 c-3 -6 1 -7 9 -4 18 7 21 14 7 14 -6 0 -13 -4 -16 -10z"/>
<path d="M2194 892 c-9 -5 -8 -10 2 -19 8 -8 15 -9 19 -3 3 6 0 10 -7 10 -9 0
-9 3 2 10 8 5 11 10 5 10 -5 0 -15 -4 -21 -8z"/>
<path d="M2732 891 c-11 -6 -10 -10 4 -15 9 -3 19 -4 22 -1 3 3 0 5 -7 5 -7 0
-9 5 -6 10 7 12 4 12 -13 1z"/>
<path d="M2119 878 c-6 -21 -5 -38 2 -38 5 0 9 7 9 16 0 13 6 10 25 -10 14
-15 25 -22 25 -16 0 6 5 8 11 4 7 -4 10 -1 7 7 -3 8 -12 14 -21 14 -9 0 -22 6
-29 13 -11 11 -27 16 -29 10z"/>
<path d="M2705 859 c-4 -6 -5 -12 -2 -15 2 -3 7 2 10 11 7 17 1 20 -8 4z"/>
<path d="M2220 833 c0 -10 4 -14 8 -8 4 6 11 13 16 18 5 4 2 7 -7 7 -10 0 -17
-8 -17 -17z"/>
<path d="M1113 763 c-13 -31 -21 -59 -18 -61 7 -8 47 87 43 104 -2 8 -13 -11
-25 -43z"/>
<path d="M2235 809 c-11 -17 -2 -18 19 -3 17 12 17 14 4 14 -9 0 -20 -5 -23
-11z"/>
<path d="M2116 793 c-6 -14 -5 -15 5 -6 7 7 10 15 7 18 -3 3 -9 -2 -12 -12z"/>
<path d="M2247 779 c-5 -17 -3 -18 11 -7 9 7 18 13 20 14 2 1 -4 4 -12 7 -8 3
-16 -2 -19 -14z"/>
<path d="M2272 720 c7 -10 15 -16 18 -12 3 4 10 11 15 15 6 5 3 7 -7 3 -10 -3
-18 -1 -18 4 0 6 -5 10 -10 10 -6 0 -5 -8 2 -20z"/>
<path d="M2385 721 c-3 -5 -1 -12 5 -16 5 -3 10 1 10 9 0 18 -6 21 -15 7z"/>
<path d="M2406 651 c-4 -5 3 -7 14 -4 23 6 26 13 6 13 -8 0 -17 -4 -20 -9z"/>
<path d="M2450 595 c0 -7 61 -37 66 -33 2 3 -12 12 -31 21 -19 9 -35 15 -35
12z"/>
<path d="M2325 560 c-3 -6 1 -7 9 -4 18 7 21 14 7 14 -6 0 -13 -4 -16 -10z"/>
<path d="M1167 554 c-7 -7 30 -44 43 -44 4 0 14 8 21 18 13 15 12 16 -4 3 -22
-17 -34 -7 -17 14 7 9 8 15 2 15 -6 0 -13 -6 -15 -12 -4 -10 -7 -10 -14 0 -5
7 -12 9 -16 6z"/>
<path d="M2503 540 c-28 -11 -29 -16 -5 -16 10 0 24 6 31 13 14 15 6 16 -26 3z"/>
<path d="M2333 517 c0 -7 11 -13 24 -13 27 -2 27 -1 -3 14 -15 8 -21 8 -21 -1z"/>
<path d="M2530 515 c-11 -13 -10 -14 4 -9 9 3 16 10 16 15 0 13 -6 11 -20 -6z"/>
<path d="M2024 503 c-9 -10 -24 -18 -33 -18 -10 0 -15 -8 -14 -20 1 -11 -4
-23 -10 -27 -8 -5 -7 -8 3 -7 8 0 30 20 48 44 34 46 36 58 6 28z m-24 -27 c0
-3 -4 -8 -10 -11 -5 -3 -10 -1 -10 4 0 6 5 11 10 11 6 0 10 -2 10 -4z"/>
<path d="M2037 482 c-22 -24 -39 -72 -26 -72 6 0 8 -4 5 -8 -2 -4 5 -9 17 -9
15 -2 18 0 9 6 -10 6 -8 10 9 14 13 3 29 1 36 -5 9 -7 13 -7 13 1 0 6 -5 11
-10 11 -7 0 -7 8 1 23 9 17 9 20 -1 10 -7 -6 -20 -9 -29 -6 -14 4 -14 3 -1 -6
12 -8 10 -12 -10 -19 -20 -8 -26 -6 -29 6 -2 9 2 18 8 20 6 2 11 10 11 18 0
17 12 18 28 2 7 -7 12 -9 12 -4 0 4 -6 14 -14 21 -12 12 -16 12 -29 -3z"/>
<path d="M827 483 c-7 -11 10 -40 18 -31 4 4 3 14 -3 24 -5 9 -12 12 -15 7z"/>
<path d="M2350 482 c0 -4 10 -9 22 -9 18 -2 20 0 8 7 -18 12 -30 13 -30 2z"/>
<path d="M800 455 c0 -8 5 -15 10 -15 6 0 10 7 10 15 0 8 -4 15 -10 15 -5 0
-10 -7 -10 -15z"/>
<path d="M2555 454 c9 -9 19 -13 23 -10 3 4 0 11 -8 16 -24 15 -33 11 -15 -6z"/>
<path d="M1320 450 c-8 -5 -12 -12 -9 -15 4 -3 12 1 19 10 14 17 11 19 -10 5z"/>
<path d="M1351 443 c-7 -8 -11 -16 -8 -19 2 -2 10 2 17 11 17 20 9 27 -9 8z"/>
<path d="M2378 453 c7 -3 16 -2 19 1 4 3 -2 6 -13 5 -11 0 -14 -3 -6 -6z"/>
<path d="M641 402 l-33 -27 36 -13 c26 -10 40 -10 53 -2 15 8 12 9 -12 5 -30
-5 -30 -5 5 11 34 16 34 16 12 28 -12 7 -19 15 -16 19 20 20 -16 3 -45 -21z
m47 0 c9 -6 5 -12 -13 -20 -31 -14 -46 -15 -25 -2 13 9 13 10 0 10 -13 0 -13
1 0 10 18 12 22 12 38 2z"/>
<path d="M715 420 c-3 -5 -1 -10 4 -10 6 0 11 5 11 10 0 6 -2 10 -4 10 -3 0
-8 -4 -11 -10z"/>
<path d="M2570 420 c-9 -6 -10 -10 -3 -10 6 0 15 5 18 10 8 12 4 12 -15 0z"/>
<path d="M431 404 c0 -11 3 -14 6 -6 3 7 2 16 -1 19 -3 4 -6 -2 -5 -13z"/>
<path d="M2395 409 c-11 -16 -1 -19 13 -3 7 8 8 14 3 14 -5 0 -13 -5 -16 -11z"/>
<path d="M2522 404 c-7 -8 -8 -14 -3 -14 10 0 25 19 20 25 -2 1 -10 -3 -17
-11z"/>
<path d="M944 378 c-24 -29 -74 -123 -74 -141 0 -8 9 -26 20 -40 26 -33 25
-44 -5 -49 -14 -3 -25 -2 -25 1 0 3 -10 12 -22 20 -13 7 -20 10 -16 6 5 -5 -1
-14 -11 -21 -10 -8 -36 -43 -57 -78 -21 -36 -45 -67 -53 -70 -9 -2 -3 -4 14
-3 24 2 35 12 64 60 32 55 36 59 68 55 18 -2 33 0 33 5 0 4 5 5 10 2 16 -10
40 14 40 39 0 12 -7 31 -15 42 -18 24 -19 54 -2 79 60 87 80 149 31 93z"/>
<path d="M2575 380 c-3 -5 -2 -10 4 -10 5 0 13 5 16 10 3 6 2 10 -4 10 -5 0
-13 -4 -16 -10z"/>
<path d="M0 370 c0 -5 5 -10 10 -10 6 0 10 5 10 10 0 6 -4 10 -10 10 -5 0 -10
-4 -10 -10z"/>
<path d="M360 365 c-7 -9 -11 -17 -9 -18 2 -1 13 -9 23 -17 18 -14 19 -14 8 7
-19 35 -14 40 13 10 14 -15 30 -27 35 -27 4 0 -5 14 -22 30 -35 35 -32 34 -48
15z"/>
<path d="M2500 365 c-11 -13 -10 -14 4 -9 12 5 15 2 10 -9 -3 -10 -12 -13 -22
-10 -14 5 -14 3 2 -16 11 -12 26 -19 33 -17 11 5 17 -5 15 -25 -1 -3 10 -12
23 -19 14 -7 27 -22 31 -32 3 -10 10 -16 15 -13 5 3 14 1 21 -5 7 -6 66 -40
131 -74 64 -34 114 -66 110 -71 -5 -4 0 -5 10 -2 10 4 17 2 17 -5 0 -7 7 -5
18 4 19 17 46 13 36 -5 -5 -8 -2 -8 6 0 12 11 11 15 -5 27 -16 12 -21 11 -33
0 -7 -8 -18 -11 -24 -8 -7 4 -1 14 13 25 15 11 18 19 10 19 -8 0 -19 -7 -25
-16 -10 -13 -16 -13 -39 -3 -14 6 -24 16 -21 20 3 5 14 5 24 -1 25 -14 27 -13
33 10 3 11 1 20 -4 20 -5 0 -9 -7 -9 -15 0 -14 -3 -14 -30 0 -26 13 -29 14
-24 0 9 -23 -1 -19 -93 35 -47 27 -87 50 -89 50 -3 0 -17 13 -32 28 -15 16
-34 26 -42 24 -8 -3 -12 -1 -8 3 4 4 0 14 -8 22 -13 14 -13 17 1 32 21 24 19
31 -11 31 -14 0 -23 4 -19 10 10 16 -11 12 -25 -5z m38 -35 c-7 -11 -16 -20
-20 -20 -11 0 -10 9 5 25 18 21 29 18 15 -5z"/>
<path d="M2465 360 c3 -5 8 -10 11 -10 2 0 4 5 4 10 0 6 -5 10 -11 10 -5 0 -7
-4 -4 -10z"/>
<path d="M860 351 c0 -5 8 -12 18 -14 12 -3 9 -5 -8 -6 -23 -1 -23 -3 -6 -12
23 -14 41 8 24 28 -12 15 -28 17 -28 4z"/>
<path d="M2437 343 c-4 -3 -7 -11 -7 -17 0 -6 5 -5 12 2 6 6 9 14 7 17 -3 3
-9 2 -12 -2z"/>
<path d="M1430 315 c7 -8 17 -15 22 -15 6 0 5 7 -2 15 -7 8 -17 15 -22 15 -6
0 -5 -7 2 -15z"/>
<path d="M2457 323 c-4 -3 -7 -11 -7 -17 0 -6 5 -5 12 2 6 6 9 14 7 17 -3 3
-9 2 -12 -2z"/>
<path d="M2569 319 c-11 -7 -11 -9 3 -9 9 0 18 -5 20 -12 3 -7 7 -8 10 -3 9
16 -17 34 -33 24z"/>
<path d="M750 289 c0 -6 -6 -9 -14 -6 -8 3 -20 -1 -27 -9 -10 -13 -10 -17 2
-25 8 -5 20 -9 28 -9 8 0 23 -8 34 -17 11 -10 17 -12 12 -4 -6 10 0 12 26 7
l34 -6 -35 15 -35 15 32 -5 c25 -3 36 0 48 18 8 12 15 26 15 32 0 5 -5 3 -10
-7 -6 -10 -18 -14 -30 -11 -11 3 -17 9 -14 14 3 5 0 9 -5 9 -6 0 -11 -9 -11
-20 0 -13 -6 -20 -17 -19 -11 0 -13 3 -6 6 10 3 10 8 -1 19 -17 17 -26 18 -26
3z"/>
<path d="M2465 291 c-6 -11 13 -26 22 -17 4 3 0 6 -8 7 -8 0 -6 4 6 9 16 7 17
9 3 9 -9 1 -19 -3 -23 -8z"/>
<path d="M135 260 c33 -16 66 -30 73 -30 6 0 12 -4 12 -10 0 -5 -5 -10 -12
-10 -24 0 3 -13 34 -16 l33 -4 -25 20 c-28 22 -115 65 -152 74 -12 3 4 -8 37
-24z"/>
<path d="M275 270 c-3 -6 1 -7 9 -4 18 7 21 14 7 14 -6 0 -13 -4 -16 -10z"/>
<path d="M2505 262 c6 -5 21 -13 35 -17 17 -5 22 -4 15 3 -5 5 -21 13 -35 17
-17 5 -22 4 -15 -3z"/>
<path d="M1560 215 c7 -8 17 -15 22 -15 5 0 3 7 -6 15 -8 8 -18 15 -22 15 -3
0 -1 -7 6 -15z"/>
<path d="M825 211 c-28 -6 -28 -7 -8 -13 13 -4 27 0 34 8 6 8 10 13 8 13 -2
-1 -17 -4 -34 -8z"/>
<path d="M2737 189 c7 -7 15 -10 18 -7 3 3 -2 9 -12 12 -14 6 -15 5 -6 -5z"/>
<path d="M188 183 c7 -3 16 -2 19 1 4 3 -2 6 -13 5 -11 0 -14 -3 -6 -6z"/>
<path d="M233 172 c17 -3 16 -5 -4 -23 -30 -26 -15 -24 21 2 19 15 34 19 47
14 15 -7 13 -9 -11 -14 -46 -9 -45 -31 1 -30 l38 2 -35 6 -35 7 35 6 c40 6
102 -18 80 -32 -8 -5 -3 -7 14 -7 31 0 25 12 -17 33 -17 9 -37 22 -44 29 -7 8
-33 13 -60 12 -27 0 -40 -3 -30 -5z"/>
<path d="M760 160 c-9 -6 -10 -10 -3 -10 6 0 15 5 18 10 8 12 4 12 -15 0z"/>
<path d="M2655 160 c-3 -6 1 -7 9 -4 18 7 21 14 7 14 -6 0 -13 -4 -16 -10z"/>
<path d="M1655 151 c-3 -5 -2 -12 3 -15 5 -3 9 1 9 9 0 17 -3 19 -12 6z"/>
<path d="M2680 150 c-9 -6 -10 -10 -3 -10 6 0 15 5 18 10 8 12 4 12 -15 0z"/>
<path d="M2726 105 c-11 -8 -17 -17 -14 -20 2 -3 13 4 23 15 21 23 18 25 -9 5z"/>
<path d="M276 93 c-3 -7 -1 -13 4 -13 6 0 10 -4 10 -10 0 -5 -15 -7 -32 -5
l-33 5 29 -10 c18 -5 34 -6 41 0 5 4 38 12 73 16 34 3 62 11 62 16 0 6 -7 7
-16 4 -9 -3 -41 -8 -72 -11 -41 -3 -47 -2 -22 3 l35 8 -37 5 c-25 3 -39 1 -42
-8z"/>
<path d="M2755 100 c-3 -5 1 -10 10 -10 9 0 13 5 10 10 -3 6 -8 10 -10 10 -2
0 -7 -4 -10 -10z"/>
<path d="M600 90 c0 -5 5 -10 11 -10 5 0 7 5 4 10 -3 6 -8 10 -11 10 -2 0 -4
-4 -4 -10z"/>
<path d="M534 81 c4 -5 1 -11 -6 -13 -7 -3 2 -17 22 -36 29 -26 43 -31 83 -32
26 0 47 3 47 8 0 4 -20 7 -45 8 -49 1 -98 34 -88 60 3 8 0 14 -7 14 -6 0 -9
-4 -6 -9z"/>
<path d="M676 55 c-42 -37 -42 -46 0 -19 20 14 53 55 42 54 -2 -1 -21 -16 -42
-35z"/>
<path d="M1196 78 c3 -5 10 -6 15 -3 13 9 11 12 -6 12 -8 0 -12 -4 -9 -9z"/>
<path d="M340 60 l-35 -7 30 -3 c20 -2 7 -7 -40 -15 -61 -11 -65 -13 -30 -15
32 -1 36 -3 20 -10 -13 -6 -15 -9 -5 -9 8 0 22 4 30 9 13 9 13 10 0 11 -8 1
17 7 55 14 54 10 62 13 35 15 -33 2 -33 3 -10 10 33 11 0 11 -50 0z"/>
<path d="M1631 41 c-29 -41 -26 -52 5 -16 l25 30 -7 -27 c-7 -33 11 -39 19 -7
6 23 -1 49 -13 49 -5 0 -18 -13 -29 -29z"/>
<path d="M1880 40 c-41 -16 -67 -29 -58 -29 10 -1 48 10 84 24 80 30 95 26 28
-8 l-49 -25 53 1 c28 0 52 4 52 9 0 4 -8 8 -17 8 -14 0 -13 3 6 16 18 13 20
18 10 25 -20 12 -25 11 -109 -21z"/>
<path d="M2765 60 c3 -5 12 -7 20 -3 21 7 19 13 -6 13 -11 0 -18 -4 -14 -10z"/>
<path d="M2805 57 c-22 -24 -25 -36 -14 -43 7 -4 9 -3 5 4 -3 6 6 20 20 31 15
12 20 21 13 21 -8 -1 -19 -6 -24 -13z"/>
<path d="M629 43 c-13 -17 -13 -17 6 -3 11 8 22 16 24 17 2 2 0 3 -6 3 -6 0
-17 -8 -24 -17z"/>
<path d="M1185 50 c-8 -13 4 -50 16 -50 12 0 12 17 -1 25 -5 3 -7 12 -3 20 6
17 -3 20 -12 5z"/>
<path d="M238 43 c7 -3 16 -2 19 1 4 3 -2 6 -13 5 -11 0 -14 -3 -6 -6z"/>
<path d="M485 40 c-3 -5 3 -10 14 -10 24 0 36 -16 19 -23 -7 -3 0 -6 15 -6 24
-1 26 1 15 12 -24 24 -56 38 -63 27z"/>
<path d="M2915 40 c-16 -7 -17 -9 -3 -9 9 -1 20 4 23 9 7 11 7 11 -20 0z"/>
<path d="M1300 29 c0 -5 5 -7 10 -4 6 3 10 8 10 11 0 2 -4 4 -10 4 -5 0 -10
-5 -10 -11z"/>
<path d="M2727 33 c-3 -5 6 -8 19 -8 13 0 24 3 24 8 0 4 -9 7 -19 7 -11 0 -22
-3 -24 -7z"/>
<path d="M2820 30 c0 -5 7 -7 15 -4 8 4 15 8 15 10 0 2 -7 4 -15 4 -8 0 -15
-4 -15 -10z"/>
<path d="M388 23 c12 -2 30 -2 40 0 9 3 -1 5 -23 4 -22 0 -30 -2 -17 -4z"/>
<path d="M468 13 c6 -2 18 -2 25 0 6 3 1 5 -13 5 -14 0 -19 -2 -12 -5z"/>
<path d="M2918 3 c12 -2 30 -2 40 0 9 3 -1 5 -23 4 -22 0 -30 -2 -17 -4z"/>
</g>
</svg>
